# xmcd
#
# Track frame offsets:
#	150
#	15650
#	40232
#	57936
#	84952
#	104803
#	120477
#	138057
#	163216
#	182392
#
# Disc length: 2677 seconds
# Revision: 0
# Processed by: cddbd v1.5.2PL0 Copyright (c) Steve Scherf et al.
# Submitted via: dBpowerAMP V12.0
#
DISCID=790a730a
DTITLE=Root Doctor - New Attitude
DYEAR=2013
DGENRE=Blues
TTITLE0=Rear View Sight
TTITLE1=Set Me Free
TTITLE2=Bring It Back
TTITLE3=Pay the Rent
TTITLE4=The Other Way
TTITLE5=Louisiana Bound
TTITLE6=You're Gonna Lose
TTITLE7=Baby, You're Bad
TTITLE8=Someone Else is Steppin' In
TTITLE9=Land of the Free
EXTD=
EXTT0=
EXTT1=
EXTT2=
EXTT3=
EXTT4=
EXTT5=
EXTT6=
EXTT7=
EXTT8=
EXTT9=
PLAYORDER=
